<svg width="200" height="200" xmlns="http://www.w3.org/2000/svg">
 <defs>
  <style>.cls-1{fill:#1a1a1a}.cls-2{fill:#4d64ae}.cls-3{fill:#ca3c32}.cls-4{fill:#9259a3}.cls-5{fill:#399746}</style>
  <linearGradient spreadMethod="pad" gradientUnits="objectBoundingBox" y2="1" y1="0" x2="1" x1="0" id="svg_6">
   <stop stop-color="rgb(203,206,208)" offset="0"/>
   <stop stop-color="rgb(132,131,139)" offset="1"/>
  </linearGradient>
  <linearGradient spreadMethod="pad" gradientUnits="objectBoundingBox" y2="1" y1="0" x2="1" x1="0" id="svg_5">
   <stop stop-color="rgb(39,109,195)" offset="0"/>
   <stop stop-color="rgb(22,92,170)" offset="1"/>
  </linearGradient>
 </defs>
 <title>Asset 2</title>
 <g>
  <title>background</title>
  <rect fill="none" id="canvas_background" height="202" width="202" y="-1" x="-1"/>
 </g>
 <g>
  <title>Layer 1</title>
  <g id="Layer_2">
   <g id="Layer_1-2">
    <g id="layer1">
     <g id="g3855">
      <g id="g945">
       <g id="g984">
        <g id="g920">
         <path class="cls-1" d="m96.14,110.94l-13,0l0,-59.81l13,-3.58l0,63.39z" id="path3804"/>
         <g id="g898">
          <g id="g893">
           <path class="cls-2" d="m25.17,66.33a8.9,8.9 0 1 1 8.9,-8.9a8.91,8.91 0 0 1 -8.9,8.9z" id="path19"/>
          </g>
          <path class="cls-1" d="m32.14,110.83a26.48,26.48 0 0 1 -1.31,9.17a12.12,12.12 0 0 1 -3.62,5.4a12.33,12.33 0 0 1 -5.64,2.6a36.64,36.64 0 0 1 -7.32,0.67a22.47,22.47 0 0 1 -4.81,-0.47a13,13 0 0 1 -3.54,-1.27a6,6 0 0 1 -2.14,-1.86a3.62,3.62 0 0 1 -0.76,-2.19a4.26,4.26 0 0 1 1.59,-3.38a6.47,6.47 0 0 1 4.33,-1.35a5,5 0 0 1 1.87,0.32a6,6 0 0 1 1.43,0.79a12,12 0 0 1 1.16,1.07c0.31,0.4 0.59,0.77 0.83,1.12a7.58,7.58 0 0 0 1.51,1.55a2.3,2.3 0 0 0 1.15,0.4a1.85,1.85 0 0 0 1,-0.28a2,2 0 0 0 0.71,-1a7.18,7.18 0 0 0 0.4,-1.91a23.12,23.12 0 0 0 0.16,-3.06l0,-46.67l13,-3.58l0,43.93z" id="path3819"/>
         </g>
         <path class="cls-1" d="m51.14,67.94l0,30.06a6.14,6.14 0 0 0 0.47,2.39a6.45,6.45 0 0 0 1.39,1.85a7,7 0 0 0 2,1.27a6.12,6.12 0 0 0 2.4,0.48a4.2,4.2 0 0 0 1.61,-0.4a8.42,8.42 0 0 0 1.8,-1.12a13.27,13.27 0 0 0 1.81,-1.66a12.92,12.92 0 0 0 1.61,-2.11l0,-30.76l13,0l0,43l-13,0l0,-4a22.47,22.47 0 0 1 -5.43,3.53a13.62,13.62 0 0 1 -5.59,1.28a16.52,16.52 0 0 1 -5.9,-1a15.59,15.59 0 0 1 -4.76,-2.89a13.56,13.56 0 0 1 -3.17,-4.28a12.41,12.41 0 0 1 -1.15,-5.29l0,-30.35l12.91,0z" id="path3802"/>
         <g id="g905">
          <g id="g890">
           <path class="cls-3" d="m108.79,66.33a8.9,8.9 0 1 1 8.91,-8.9a8.91,8.91 0 0 1 -8.91,8.9z" id="path13"/>
           <path class="cls-4" d="m130.18,66.33a8.9,8.9 0 1 1 8.91,-8.9a8.91,8.91 0 0 1 -8.91,8.9z" id="path25"/>
           <path class="cls-5" d="m119.49,47.8a8.9,8.9 0 1 1 8.9,-8.9a8.89,8.89 0 0 1 -8.9,8.9z" id="path31"/>
          </g>
          <path class="cls-1" d="m103.14,70.6l13,-3.58l0,43.92l-13,0l0,-40.34z" id="path3823"/>
         </g>
         <path class="cls-1" d="m143.14,88.77a37.64,37.64 0 0 0 -3.77,1.87a21.89,21.89 0 0 0 -3.46,2.3a12.77,12.77 0 0 0 -2.55,2.67a5.12,5.12 0 0 0 -1,2.94a8.53,8.53 0 0 0 0.32,2.34a7,7 0 0 0 0.87,1.91a5.15,5.15 0 0 0 1.23,1.27a2.67,2.67 0 0 0 1.51,0.48a6.3,6.3 0 0 0 3.18,-1a41.31,41.31 0 0 0 3.62,-2.47l0.05,-12.31zm13,22.17l-13,0l0,-3.42c-0.71,0.61 -1.42,1.17 -2.11,1.67a14.2,14.2 0 0 1 -2.3,1.35a13.56,13.56 0 0 1 -2.82,0.88a19.75,19.75 0 0 1 -3.78,0.31a16,16 0 0 1 -5.33,-0.83a12.23,12.23 0 0 1 -4,-2.31a10.23,10.23 0 0 1 -2.51,-3.53a11,11 0 0 1 -0.87,-4.37a10.27,10.27 0 0 1 0.91,-4.42a13.11,13.11 0 0 1 2.55,-3.57a19.36,19.36 0 0 1 3.77,-2.86a40.26,40.26 0 0 1 4.65,-2.31c1.67,-0.69 3.4,-1.32 5.17,-1.91l5.25,-1.71l1.43,-0.31l0,-4.26a11.91,11.91 0 0 0 -0.44,-3.45a5.82,5.82 0 0 0 -1.15,-2.31a4,4 0 0 0 -1.79,-1.31a6.6,6.6 0 0 0 -2.34,-0.4a7.38,7.38 0 0 0 -2.59,0.4a4.37,4.37 0 0 0 -1.67,1.11a3.94,3.94 0 0 0 -0.91,1.59a6.52,6.52 0 0 0 -0.28,2a9.51,9.51 0 0 1 -0.28,2.35a4.85,4.85 0 0 1 -0.91,2a4.47,4.47 0 0 1 -1.79,1.28a6.84,6.84 0 0 1 -2.9,0.52a7.51,7.51 0 0 1 -2.51,-0.4a6.16,6.16 0 0 1 -1.91,-1.15a6,6 0 0 1 -1.27,-1.75a5.59,5.59 0 0 1 -0.44,-2.18a6.42,6.42 0 0 1 1.51,-4.1a13.16,13.16 0 0 1 4.06,-3.3a23.45,23.45 0 0 1 5.92,-2.14a31.07,31.07 0 0 1 7.12,-0.8a32.21,32.21 0 0 1 7.87,0.84a16.37,16.37 0 0 1 5.49,2.34a9.55,9.55 0 0 1 3.18,3.66a10.91,10.91 0 0 1 1,4.81l0.02,31.99z" id="path3808"/>
        </g>
       </g>
      </g>
     </g>
    </g>
   </g>
  </g>

  <g id="svg_10">
   <path id="svg_8" fill-rule="evenodd" fill="url(#svg_6)" d="m135.00046,183.14608c-36.34003,0 -65.79964,-19.59827 -65.79964,-43.77392c0,-24.17583 29.45961,-43.77411 65.79964,-43.77411c36.34021,0 65.79964,19.59827 65.79964,43.77411c0,24.17565 -29.45943,43.77392 -65.79964,43.77392zm10.07178,-70.43387c-27.62166,0 -50.01343,13.39823 -50.01343,29.92575c0,16.52753 22.39177,29.92575 50.01343,29.92575c27.62148,0 48.00576,-9.16002 48.00576,-29.92575c0,-20.7592 -20.38428,-29.92575 -48.00576,-29.92575z"/>
   <path id="svg_9" fill-rule="evenodd" fill="url(#svg_5)" d="m169.41019,163.39771c0,0 3.9825,1.19375 6.29623,2.35667c0.80282,0.40353 2.19182,1.20879 3.19374,2.26603c0.98148,1.03549 1.46,2.08475 1.46,2.08475l15.69496,26.28596l-25.36743,0.01124l-11.86247,-22.12771c0,0 -2.42907,-4.14575 -3.92374,-5.34783c-1.24684,-1.00267 -1.77846,-1.35962 -3.01124,-1.35962c-0.85811,0 -6.02723,0 -6.02723,0l0.00474,28.8192l-22.44744,0.00943l0,-73.61665l45.07737,0c0,0 20.53119,0.36782 20.53119,19.77103c0,19.40321 -19.61869,20.84749 -19.61869,20.84749zm-9.76372,-24.65007l-13.58946,-0.0087l-0.00675,12.51756l13.59621,-0.00435c0,0 6.29623,-0.0194 6.29623,-6.36755c0,-6.47577 -6.29623,-6.13696 -6.29623,-6.13696z"/>
  </g>
 </g>
</svg>