<?xml version="1.0" encoding="UTF-8"?>
<svg xmlns="http://www.w3.org/2000/svg" xmlns:xlink="http://www.w3.org/1999/xlink" width="442pt" height="321pt" viewBox="0 0 442 321" version="1.1">
<defs>
<clipPath id="clip1">
  <path d="M 98 5.480469 L 101 5.480469 L 101 312.78125 L 98 312.78125 Z M 98 5.480469 "/>
</clipPath>
<clipPath id="clip2">
  <path d="M 250 5.480469 L 253 5.480469 L 253 312.78125 L 250 312.78125 Z M 250 5.480469 "/>
</clipPath>
</defs>
<g id="surface1">
<rect x="0" y="0" width="442" height="321" style="fill:rgb(100%,100%,100%);fill-opacity:1;stroke:none;"/>
<path style=" stroke:none;fill-rule:nonzero;fill:rgb(25.882353%,33.72549%,39.215686%);fill-opacity:1;" d="M 130.464844 279.75 L 130.714844 279.746094 L 130.96875 279.738281 L 131.21875 279.734375 L 131.46875 279.726563 L 131.722656 279.722656 L 131.972656 279.714844 L 132.222656 279.710938 L 132.476563 279.703125 L 132.976563 279.6875 L 133.230469 279.675781 L 133.480469 279.667969 L 133.730469 279.65625 L 133.984375 279.648438 L 134.484375 279.625 L 134.738281 279.613281 L 134.988281 279.601563 L 135.238281 279.585938 L 135.488281 279.574219 L 135.742188 279.5625 L 136.242188 279.539063 L 136.496094 279.53125 L 136.746094 279.519531 L 136.996094 279.511719 L 137.25 279.503906 L 137.75 279.488281 L 138.003906 279.484375 L 138.503906 279.476563 L 138.757813 279.472656 L 139.257813 279.464844 L 139.511719 279.460938 L 140.011719 279.453125 L 140.265625 279.449219 L 140.515625 279.441406 L 140.765625 279.4375 L 141.015625 279.425781 L 141.269531 279.417969 L 141.519531 279.40625 L 141.769531 279.390625 L 142.023438 279.375 L 142.273438 279.359375 L 142.523438 279.339844 L 142.777344 279.316406 L 143.277344 279.269531 L 143.53125 279.242188 L 143.78125 279.214844 L 144.03125 279.183594 L 144.285156 279.152344 L 144.785156 279.089844 L 145.039063 279.054688 L 145.539063 278.984375 L 145.792969 278.949219 L 146.292969 278.878906 L 146.542969 278.839844 L 146.796875 278.804688 L 147.296875 278.726563 L 147.550781 278.6875 L 147.800781 278.648438 L 148.050781 278.605469 L 148.304688 278.5625 L 148.554688 278.519531 L 148.804688 278.472656 L 149.058594 278.425781 L 149.308594 278.378906 L 149.558594 278.328125 L 149.8125 278.277344 L 150.0625 278.226563 L 150.3125 278.171875 L 150.566406 278.117188 L 151.066406 278.007813 L 151.320313 277.949219 L 151.820313 277.832031 L 152.070313 277.769531 L 152.324219 277.710938 L 152.824219 277.585938 L 153.078125 277.519531 L 153.328125 277.457031 L 153.578125 277.386719 L 153.832031 277.316406 L 154.082031 277.246094 L 154.332031 277.171875 L 154.585938 277.09375 L 155.085938 276.921875 L 155.339844 276.828125 L 155.589844 276.730469 L 155.839844 276.628906 L 156.09375 276.515625 L 156.34375 276.398438 L 156.59375 276.269531 L 156.847656 276.136719 L 157.097656 275.996094 L 157.347656 275.84375 L 157.597656 275.683594 L 157.851563 275.519531 L 158.101563 275.339844 L 158.351563 275.15625 L 158.605469 274.960938 L 158.855469 274.761719 L 159.105469 274.550781 L 159.359375 274.335938 L 159.609375 274.113281 L 159.859375 273.882813 L 160.113281 273.644531 L 160.363281 273.402344 L 160.613281 273.152344 L 160.867188 272.902344 L 161.367188 272.378906 L 161.621094 272.113281 L 161.871094 271.84375 L 162.121094 271.570313 L 162.375 271.296875 L 162.625 271.019531 L 162.875 270.738281 L 163.125 270.460938 L 163.378906 270.179688 L 163.878906 269.617188 L 164.132813 269.335938 L 164.382813 269.050781 L 164.632813 268.773438 L 164.886719 268.492188 L 165.136719 268.210938 L 165.386719 267.933594 L 165.640625 267.652344 L 165.890625 267.375 L 166.140625 267.09375 L 166.394531 266.816406 L 166.644531 266.535156 L 166.894531 266.257813 L 167.148438 265.976563 L 167.648438 265.40625 L 167.902344 265.121094 L 168.402344 264.535156 L 168.652344 264.238281 L 168.90625 263.9375 L 169.15625 263.628906 L 169.40625 263.316406 L 169.660156 263 L 170.160156 262.34375 L 170.414063 262.003906 L 170.664063 261.65625 L 170.914063 261.304688 L 171.167969 260.945313 L 171.417969 260.582031 L 171.667969 260.207031 L 171.921875 259.828125 L 172.171875 259.445313 L 172.421875 259.058594 L 172.675781 258.667969 L 173.425781 257.484375 L 173.679688 257.09375 L 173.929688 256.699219 L 174.179688 256.3125 L 174.433594 255.925781 L 174.683594 255.546875 L 174.933594 255.171875 L 175.1875 254.800781 L 175.4375 254.4375 L 175.6875 254.078125 L 175.941406 253.726563 L 176.191406 253.378906 L 176.441406 253.039063 L 176.695313 252.699219 L 177.195313 252.027344 L 177.449219 251.695313 L 177.949219 251.023438 L 178.203125 250.683594 L 178.453125 250.339844 L 178.703125 249.988281 L 178.953125 249.628906 L 179.207031 249.261719 L 179.457031 248.882813 L 179.707031 248.492188 L 179.960938 248.089844 L 180.210938 247.679688 L 180.460938 247.25 L 180.714844 246.8125 L 180.964844 246.363281 L 181.214844 245.894531 L 181.46875 245.417969 L 181.71875 244.929688 L 181.96875 244.433594 L 182.222656 243.925781 L 182.472656 243.410156 L 182.722656 242.890625 L 182.976563 242.367188 L 183.476563 241.320313 L 183.730469 240.796875 L 183.980469 240.28125 L 184.230469 239.769531 L 184.480469 239.269531 L 184.734375 238.777344 L 184.984375 238.300781 L 185.234375 237.835938 L 185.488281 237.382813 L 185.738281 236.949219 L 185.988281 236.527344 L 186.242188 236.125 L 186.492188 235.738281 L 186.742188 235.363281 L 186.996094 235.007813 L 187.246094 234.664063 L 187.496094 234.335938 L 187.75 234.019531 L 188 233.710938 L 188.25 233.417969 L 188.503906 233.128906 L 188.753906 232.855469 L 189.003906 232.589844 L 189.257813 232.332031 L 189.507813 232.085938 L 189.757813 231.851563 L 190.007813 231.628906 L 190.261719 231.417969 L 190.511719 231.226563 L 190.761719 231.054688 L 191.015625 230.898438 L 191.265625 230.765625 L 191.515625 230.65625 L 191.769531 230.566406 L 192.019531 230.507813 L 192.269531 230.472656 L 192.523438 230.46875 L 192.773438 230.492188 L 193.023438 230.539063 L 193.277344 230.613281 L 193.527344 230.707031 L 193.777344 230.824219 L 194.03125 230.960938 L 194.28125 231.109375 L 194.53125 231.273438 L 194.785156 231.445313 L 195.285156 231.804688 L 195.535156 231.980469 L 195.789063 232.15625 L 196.039063 232.324219 L 196.289063 232.484375 L 196.542969 232.636719 L 196.792969 232.777344 L 197.042969 232.910156 L 197.296875 233.035156 L 197.546875 233.148438 L 197.796875 233.257813 L 198.050781 233.363281 L 198.300781 233.46875 L 198.550781 233.570313 L 198.804688 233.683594 L 199.054688 233.800781 L 199.304688 233.929688 L 199.558594 234.070313 L 199.808594 234.226563 L 200.058594 234.402344 L 200.3125 234.601563 L 200.5625 234.824219 L 200.8125 235.070313 L 201.0625 235.339844 L 201.316406 235.632813 L 201.566406 235.949219 L 201.816406 236.292969 L 202.070313 236.664063 L 202.320313 237.054688 L 202.570313 237.46875 L 202.824219 237.90625 L 203.074219 238.359375 L 203.324219 238.828125 L 203.578125 239.3125 L 203.828125 239.816406 L 204.078125 240.332031 L 204.332031 240.855469 L 204.582031 241.394531 L 204.832031 241.9375 L 205.085938 242.488281 L 205.585938 243.605469 L 205.839844 244.171875 L 206.339844 245.304688 L 206.589844 245.867188 L 206.84375 246.429688 L 207.09375 246.984375 L 207.34375 247.535156 L 207.597656 248.078125 L 207.847656 248.609375 L 208.097656 249.128906 L 208.351563 249.636719 L 208.601563 250.128906 L 208.851563 250.605469 L 209.105469 251.070313 L 209.355469 251.515625 L 209.605469 251.941406 L 209.859375 252.34375 L 210.109375 252.730469 L 210.359375 253.101563 L 210.613281 253.449219 L 210.863281 253.78125 L 211.113281 254.09375 L 211.367188 254.390625 L 211.617188 254.667969 L 211.867188 254.933594 L 212.117188 255.179688 L 212.371094 255.417969 L 212.621094 255.644531 L 212.871094 255.863281 L 213.125 256.074219 L 213.375 256.28125 L 213.625 256.484375 L 213.878906 256.683594 L 214.128906 256.882813 L 214.378906 257.085938 L 214.632813 257.292969 L 214.882813 257.503906 L 215.132813 257.722656 L 215.386719 257.953125 L 215.636719 258.191406 L 215.886719 258.4375 L 216.140625 258.699219 L 216.390625 258.96875 L 216.640625 259.253906 L 216.894531 259.546875 L 217.144531 259.855469 L 217.394531 260.179688 L 217.644531 260.515625 L 217.898438 260.867188 L 218.148438 261.226563 L 218.398438 261.601563 L 218.652344 261.984375 L 218.902344 262.378906 L 219.152344 262.789063 L 219.40625 263.207031 L 219.65625 263.632813 L 219.90625 264.066406 L 220.160156 264.511719 L 220.410156 264.960938 L 220.660156 265.414063 L 220.914063 265.871094 L 221.414063 266.792969 L 221.667969 267.25 L 221.917969 267.707031 L 222.167969 268.15625 L 222.421875 268.601563 L 222.671875 269.035156 L 222.921875 269.457031 L 223.171875 269.867188 L 223.425781 270.261719 L 223.675781 270.640625 L 223.925781 271 L 224.179688 271.347656 L 224.429688 271.671875 L 224.679688 271.980469 L 224.933594 272.265625 L 225.183594 272.535156 L 225.433594 272.785156 L 225.6875 273.019531 L 225.9375 273.238281 L 226.1875 273.441406 L 226.441406 273.628906 L 226.691406 273.804688 L 226.941406 273.96875 L 227.195313 274.125 L 227.445313 274.269531 L 227.695313 274.40625 L 227.949219 274.535156 L 228.199219 274.660156 L 228.449219 274.78125 L 228.699219 274.894531 L 228.953125 275.003906 L 229.203125 275.113281 L 229.453125 275.214844 L 229.707031 275.316406 L 230.207031 275.511719 L 230.460938 275.605469 L 230.710938 275.699219 L 230.960938 275.789063 L 231.214844 275.875 L 231.464844 275.964844 L 231.714844 276.050781 L 231.96875 276.136719 L 232.21875 276.21875 L 232.46875 276.304688 L 232.722656 276.390625 L 232.972656 276.472656 L 233.222656 276.558594 L 233.476563 276.644531 L 233.726563 276.730469 L 233.976563 276.820313 L 234.226563 276.90625 L 234.480469 276.996094 L 234.730469 277.082031 L 234.980469 277.171875 L 235.234375 277.261719 L 235.734375 277.441406 L 235.988281 277.53125 L 236.238281 277.617188 L 236.488281 277.707031 L 236.742188 277.792969 L 236.992188 277.875 L 237.242188 277.960938 L 237.496094 278.042969 L 237.996094 278.207031 L 238.25 278.285156 L 238.5 278.359375 L 238.75 278.4375 L 239.003906 278.507813 L 239.253906 278.582031 L 239.503906 278.652344 L 239.753906 278.71875 L 240.007813 278.785156 L 240.257813 278.847656 L 240.507813 278.90625 L 240.761719 278.964844 L 241.011719 279.019531 L 241.261719 279.070313 L 241.515625 279.117188 L 242.015625 279.203125 L 242.269531 279.238281 L 242.519531 279.273438 L 242.769531 279.300781 L 243.023438 279.328125 L 243.273438 279.351563 L 243.523438 279.367188 L 243.777344 279.382813 L 244.027344 279.398438 L 244.277344 279.40625 L 244.53125 279.414063 L 244.78125 279.417969 L 245.535156 279.417969 L 245.785156 279.414063 L 246.035156 279.414063 L 246.289063 279.410156 L 246.789063 279.402344 L 247.042969 279.398438 L 247.292969 279.398438 L 247.542969 279.394531 L 247.796875 279.394531 L 248.296875 279.402344 L 248.550781 279.40625 L 249.050781 279.421875 L 249.304688 279.429688 L 249.804688 279.453125 L 250.058594 279.464844 L 250.558594 279.496094 L 250.808594 279.507813 L 251.0625 279.523438 L 251.5625 279.554688 L 251.691406 279.558594 L 251.691406 279.855469 L 130.464844 279.855469 Z M 130.464844 279.75 "/>
<path style=" stroke:none;fill-rule:nonzero;fill:rgb(80%,80%,80%);fill-opacity:1;" d="M 251.691406 279.558594 L 251.816406 279.566406 L 252.316406 279.589844 L 252.570313 279.601563 L 252.820313 279.613281 L 253.070313 279.621094 L 253.324219 279.628906 L 253.824219 279.644531 L 254.078125 279.652344 L 254.328125 279.65625 L 254.578125 279.664063 L 254.832031 279.667969 L 255.082031 279.675781 L 255.332031 279.679688 L 255.585938 279.6875 L 255.835938 279.691406 L 256.085938 279.699219 L 256.085938 279.855469 L 251.691406 279.855469 Z M 251.691406 279.558594 "/>
<path style=" stroke:none;fill-rule:nonzero;fill:rgb(25.882353%,33.72549%,39.215686%);fill-opacity:1;" d="M 202.34375 224.910156 L 203.375 224.910156 L 203.632813 224.914063 L 203.890625 224.914063 L 204.148438 224.917969 L 204.40625 224.917969 L 204.664063 224.921875 L 204.921875 224.921875 L 205.183594 224.925781 L 205.699219 224.925781 L 205.957031 224.929688 L 206.472656 224.929688 L 206.730469 224.925781 L 206.988281 224.925781 L 207.246094 224.921875 L 207.503906 224.921875 L 209.566406 224.890625 L 209.824219 224.882813 L 210.339844 224.875 L 210.597656 224.867188 L 210.855469 224.863281 L 211.113281 224.855469 L 211.371094 224.851563 L 212.917969 224.804688 L 213.949219 224.757813 L 214.207031 224.742188 L 214.464844 224.730469 L 214.726563 224.714844 L 214.984375 224.699219 L 215.242188 224.679688 L 215.757813 224.648438 L 216.273438 224.609375 L 216.53125 224.59375 L 217.304688 224.535156 L 217.5625 224.519531 L 218.078125 224.480469 L 218.335938 224.464844 L 218.59375 224.445313 L 219.109375 224.414063 L 219.367188 224.394531 L 219.625 224.378906 L 219.882813 224.359375 L 220.398438 224.328125 L 220.65625 224.308594 L 220.914063 224.292969 L 221.429688 224.253906 L 221.6875 224.238281 L 221.945313 224.21875 L 222.203125 224.195313 L 222.460938 224.175781 L 222.976563 224.128906 L 223.492188 224.074219 L 224.007813 224.011719 L 224.269531 223.976563 L 224.527344 223.9375 L 224.785156 223.894531 L 225.042969 223.847656 L 225.300781 223.796875 L 225.816406 223.679688 L 226.332031 223.546875 L 226.847656 223.390625 L 227.105469 223.304688 L 227.363281 223.214844 L 227.878906 223.019531 L 228.394531 222.800781 L 228.652344 222.683594 L 229.167969 222.433594 L 229.425781 222.300781 L 229.941406 222.019531 L 230.199219 221.871094 L 230.457031 221.71875 L 230.972656 221.398438 L 231.230469 221.234375 L 231.488281 221.066406 L 232.261719 220.550781 L 232.777344 220.199219 L 233.035156 220.027344 L 233.292969 219.851563 L 233.550781 219.679688 L 233.8125 219.507813 L 235.101563 218.648438 L 235.617188 218.296875 L 235.875 218.117188 L 236.132813 217.933594 L 236.390625 217.742188 L 236.648438 217.542969 L 236.90625 217.339844 L 237.164063 217.128906 L 237.421875 216.910156 L 237.679688 216.679688 L 237.9375 216.445313 L 238.195313 216.199219 L 238.453125 215.949219 L 238.96875 215.425781 L 239.742188 214.605469 L 240 214.324219 L 240.257813 214.046875 L 240.773438 213.5 L 241.03125 213.230469 L 241.289063 212.96875 L 241.546875 212.710938 L 241.804688 212.460938 L 242.0625 212.21875 L 242.320313 211.980469 L 242.578125 211.753906 L 242.835938 211.535156 L 243.09375 211.324219 L 243.355469 211.117188 L 243.613281 210.914063 L 243.871094 210.714844 L 244.902344 209.933594 L 245.160156 209.730469 L 245.417969 209.523438 L 245.675781 209.304688 L 245.933594 209.082031 L 246.191406 208.84375 L 246.449219 208.59375 L 246.707031 208.328125 L 246.964844 208.042969 L 247.222656 207.746094 L 247.480469 207.429688 L 247.738281 207.097656 L 247.996094 206.742188 L 248.253906 206.367188 L 248.511719 205.976563 L 248.769531 205.5625 L 249.027344 205.136719 L 249.285156 204.691406 L 249.542969 204.230469 L 249.800781 203.757813 L 250.058594 203.273438 L 250.316406 202.78125 L 250.574219 202.285156 L 250.832031 201.78125 L 251.089844 201.28125 L 251.347656 200.785156 L 251.605469 200.292969 L 251.734375 200.050781 L 251.734375 224.980469 L 202.34375 224.980469 Z M 202.34375 224.910156 "/>
<path style=" stroke:none;fill-rule:nonzero;fill:rgb(80%,80%,80%);fill-opacity:1;" d="M 251.734375 200.050781 L 251.863281 199.808594 L 252.121094 199.335938 L 252.378906 198.878906 L 252.636719 198.433594 L 252.898438 198.007813 L 253.15625 197.59375 L 253.414063 197.203125 L 253.671875 196.824219 L 253.929688 196.460938 L 254.1875 196.117188 L 254.445313 195.785156 L 254.703125 195.460938 L 255.21875 194.835938 L 255.734375 194.21875 L 255.992188 193.902344 L 256.25 193.582031 L 256.507813 193.246094 L 256.765625 192.902344 L 257.023438 192.542969 L 257.28125 192.167969 L 257.539063 191.777344 L 257.796875 191.367188 L 258.054688 190.9375 L 258.3125 190.492188 L 258.570313 190.03125 L 258.828125 189.554688 L 259.085938 189.0625 L 259.34375 188.5625 L 259.601563 188.050781 L 259.859375 187.535156 L 260.117188 187.015625 L 260.632813 185.96875 L 260.890625 185.453125 L 261.148438 184.941406 L 261.40625 184.441406 L 261.664063 183.949219 L 261.921875 183.472656 L 262.179688 183.015625 L 262.4375 182.574219 L 262.699219 182.152344 L 262.957031 181.75 L 263.214844 181.371094 L 263.472656 181.011719 L 263.730469 180.671875 L 263.988281 180.359375 L 264.246094 180.070313 L 264.503906 179.800781 L 264.761719 179.550781 L 265.019531 179.320313 L 265.277344 179.105469 L 265.535156 178.910156 L 265.792969 178.726563 L 266.050781 178.5625 L 266.308594 178.40625 L 266.566406 178.261719 L 266.824219 178.125 L 267.082031 178 L 267.339844 177.878906 L 267.597656 177.765625 L 267.855469 177.660156 L 268.113281 177.558594 L 268.371094 177.464844 L 268.628906 177.378906 L 268.886719 177.300781 L 269.144531 177.226563 L 269.402344 177.164063 L 269.660156 177.105469 L 269.917969 177.0625 L 270.175781 177.027344 L 270.433594 177.003906 L 270.691406 176.992188 L 270.949219 176.992188 L 271.207031 177.003906 L 271.464844 177.027344 L 271.722656 177.0625 L 271.980469 177.109375 L 272.242188 177.171875 L 272.5 177.242188 L 272.757813 177.328125 L 273.015625 177.421875 L 273.273438 177.527344 L 273.53125 177.644531 L 273.789063 177.773438 L 274.046875 177.917969 L 274.304688 178.074219 L 274.5625 178.242188 L 274.820313 178.425781 L 275.078125 178.625 L 275.335938 178.839844 L 275.59375 179.070313 L 275.851563 179.320313 L 276.109375 179.59375 L 276.367188 179.882813 L 276.625 180.195313 L 276.882813 180.527344 L 277.140625 180.878906 L 277.398438 181.25 L 277.65625 181.640625 L 277.914063 182.054688 L 278.171875 182.488281 L 278.429688 182.9375 L 278.6875 183.398438 L 278.945313 183.875 L 279.203125 184.359375 L 279.460938 184.855469 L 279.71875 185.355469 L 280.234375 186.371094 L 280.75 187.378906 L 281.007813 187.875 L 281.265625 188.363281 L 281.523438 188.84375 L 281.785156 189.3125 L 282.042969 189.769531 L 282.300781 190.210938 L 282.558594 190.640625 L 282.816406 191.058594 L 283.074219 191.457031 L 283.332031 191.84375 L 283.589844 192.214844 L 283.847656 192.570313 L 284.105469 192.914063 L 284.363281 193.246094 L 284.621094 193.566406 L 284.878906 193.878906 L 285.136719 194.179688 L 285.394531 194.476563 L 285.652344 194.765625 L 285.910156 195.050781 L 286.425781 195.613281 L 286.683594 195.890625 L 286.941406 196.171875 L 287.199219 196.457031 L 287.457031 196.746094 L 287.714844 197.039063 L 287.972656 197.335938 L 288.230469 197.644531 L 288.488281 197.957031 L 288.746094 198.277344 L 289.003906 198.605469 L 289.261719 198.945313 L 289.519531 199.289063 L 289.777344 199.644531 L 290.035156 200.007813 L 290.292969 200.375 L 290.550781 200.75 L 290.808594 201.128906 L 291.066406 201.511719 L 291.328125 201.898438 L 291.585938 202.289063 L 291.84375 202.675781 L 292.101563 203.066406 L 292.875 204.226563 L 293.648438 205.363281 L 294.164063 206.105469 L 295.96875 208.675781 L 296.226563 209.046875 L 296.742188 209.796875 L 297 210.175781 L 297.773438 211.324219 L 298.289063 212.097656 L 298.546875 212.480469 L 298.804688 212.867188 L 299.320313 213.625 L 299.578125 214 L 299.835938 214.371094 L 300.351563 215.089844 L 300.609375 215.4375 L 300.871094 215.777344 L 301.128906 216.109375 L 301.386719 216.429688 L 301.644531 216.742188 L 301.902344 217.039063 L 302.160156 217.328125 L 302.417969 217.601563 L 302.675781 217.863281 L 302.933594 218.117188 L 303.191406 218.351563 L 303.449219 218.578125 L 303.707031 218.785156 L 303.964844 218.984375 L 304.222656 219.171875 L 304.480469 219.34375 L 304.738281 219.507813 L 304.996094 219.664063 L 305.253906 219.808594 L 305.511719 219.945313 L 305.769531 220.074219 L 306.027344 220.199219 L 306.542969 220.433594 L 307.316406 220.761719 L 307.574219 220.867188 L 307.832031 220.976563 L 308.863281 221.398438 L 309.121094 221.507813 L 309.378906 221.613281 L 309.636719 221.714844 L 309.894531 221.820313 L 310.152344 221.921875 L 310.414063 222.023438 L 310.929688 222.21875 L 311.1875 222.3125 L 311.703125 222.492188 L 311.960938 222.574219 L 312.21875 222.660156 L 312.734375 222.816406 L 313.25 222.964844 L 313.765625 223.105469 L 315.054688 223.4375 L 315.3125 223.5 L 315.570313 223.566406 L 315.828125 223.628906 L 316.085938 223.695313 L 316.859375 223.882813 L 317.632813 224.058594 L 318.148438 224.167969 L 318.664063 224.269531 L 318.921875 224.316406 L 319.4375 224.402344 L 319.695313 224.441406 L 319.957031 224.476563 L 320.730469 224.570313 L 320.988281 224.597656 L 321.503906 224.644531 L 321.761719 224.664063 L 322.019531 224.6875 L 322.277344 224.707031 L 323.308594 224.769531 L 324.082031 224.804688 L 324.855469 224.828125 L 325.371094 224.835938 L 325.886719 224.835938 L 326.660156 224.824219 L 326.917969 224.816406 L 327.175781 224.8125 L 327.433594 224.800781 L 327.949219 224.785156 L 328.207031 224.773438 L 328.722656 224.757813 L 328.980469 224.746094 L 329.238281 224.738281 L 329.496094 224.734375 L 329.757813 224.726563 L 330.273438 224.71875 L 330.789063 224.71875 L 331.304688 224.726563 L 331.304688 224.980469 L 251.734375 224.980469 Z M 251.734375 200.050781 "/>
<path style=" stroke:none;fill-rule:nonzero;fill:rgb(80%,80%,80%);fill-opacity:1;" d="M 291.78125 169.765625 L 292.03125 169.75 L 292.28125 169.738281 L 292.53125 169.730469 L 292.78125 169.71875 L 293.03125 169.710938 L 293.285156 169.707031 L 293.535156 169.699219 L 293.785156 169.695313 L 294.035156 169.695313 L 294.535156 169.6875 L 294.785156 169.6875 L 295.039063 169.683594 L 295.289063 169.683594 L 295.539063 169.679688 L 295.789063 169.679688 L 296.289063 169.671875 L 296.789063 169.65625 L 297.042969 169.648438 L 297.292969 169.640625 L 298.292969 169.59375 L 298.542969 169.578125 L 298.796875 169.5625 L 299.046875 169.542969 L 299.296875 169.527344 L 299.796875 169.488281 L 300.046875 169.472656 L 300.296875 169.453125 L 300.550781 169.433594 L 302.050781 169.316406 L 302.304688 169.296875 L 302.554688 169.273438 L 302.804688 169.253906 L 303.554688 169.183594 L 303.804688 169.15625 L 304.058594 169.128906 L 304.308594 169.097656 L 304.808594 169.027344 L 305.058594 168.988281 L 305.558594 168.902344 L 305.8125 168.851563 L 306.3125 168.742188 L 306.8125 168.617188 L 307.0625 168.550781 L 307.5625 168.402344 L 307.816406 168.328125 L 308.316406 168.164063 L 308.566406 168.078125 L 308.816406 167.988281 L 309.316406 167.800781 L 309.570313 167.699219 L 309.820313 167.597656 L 310.070313 167.492188 L 310.320313 167.382813 L 310.570313 167.269531 L 310.820313 167.152344 L 311.070313 167.03125 L 311.324219 166.90625 L 311.574219 166.777344 L 312.074219 166.503906 L 312.324219 166.363281 L 312.824219 166.074219 L 313.078125 165.921875 L 313.328125 165.773438 L 313.578125 165.621094 L 313.828125 165.464844 L 314.328125 165.160156 L 314.578125 165.003906 L 314.832031 164.851563 L 315.082031 164.699219 L 315.332031 164.550781 L 315.582031 164.398438 L 315.832031 164.25 L 316.582031 163.792969 L 316.835938 163.636719 L 317.085938 163.480469 L 317.335938 163.316406 L 317.585938 163.148438 L 317.835938 162.972656 L 318.085938 162.789063 L 318.335938 162.597656 L 318.589844 162.390625 L 318.839844 162.175781 L 319.089844 161.949219 L 319.339844 161.707031 L 319.589844 161.449219 L 319.839844 161.179688 L 320.089844 160.894531 L 320.34375 160.59375 L 320.59375 160.277344 L 320.84375 159.945313 L 321.09375 159.601563 L 321.34375 159.242188 L 321.59375 158.871094 L 321.84375 158.488281 L 322.097656 158.097656 L 322.347656 157.695313 L 322.597656 157.289063 L 322.847656 156.878906 L 323.347656 156.050781 L 323.597656 155.640625 L 323.851563 155.230469 L 324.101563 154.828125 L 324.351563 154.429688 L 324.601563 154.042969 L 324.851563 153.664063 L 325.101563 153.296875 L 325.351563 152.941406 L 325.605469 152.597656 L 325.855469 152.269531 L 326.105469 151.953125 L 326.355469 151.652344 L 326.605469 151.363281 L 326.855469 151.082031 L 327.105469 150.816406 L 327.355469 150.558594 L 327.609375 150.308594 L 327.859375 150.066406 L 328.109375 149.832031 L 328.359375 149.59375 L 328.609375 149.359375 L 328.859375 149.121094 L 329.109375 148.878906 L 329.363281 148.632813 L 329.613281 148.371094 L 329.863281 148.097656 L 330.113281 147.8125 L 330.363281 147.507813 L 330.613281 147.183594 L 330.863281 146.84375 L 331.117188 146.480469 L 331.367188 146.089844 L 331.617188 145.675781 L 331.867188 145.238281 L 332.117188 144.78125 L 332.367188 144.296875 L 332.617188 143.792969 L 332.871094 143.269531 L 333.121094 142.726563 L 333.371094 142.167969 L 333.621094 141.597656 L 333.871094 141.015625 L 334.121094 140.429688 L 334.371094 139.839844 L 334.625 139.25 L 334.875 138.667969 L 335.125 138.089844 L 335.375 137.527344 L 335.625 136.980469 L 335.875 136.449219 L 336.125 135.941406 L 336.378906 135.449219 L 336.628906 134.984375 L 336.878906 134.546875 L 337.128906 134.136719 L 337.378906 133.75 L 337.628906 133.386719 L 337.878906 133.050781 L 338.128906 132.734375 L 338.382813 132.441406 L 338.632813 132.167969 L 338.882813 131.914063 L 339.132813 131.675781 L 339.382813 131.449219 L 339.632813 131.234375 L 339.882813 131.027344 L 340.136719 130.828125 L 340.636719 130.4375 L 341.136719 130.054688 L 341.636719 129.664063 L 341.890625 129.460938 L 342.140625 129.253906 L 342.390625 129.042969 L 342.640625 128.820313 L 342.890625 128.59375 L 343.140625 128.363281 L 343.390625 128.121094 L 343.644531 127.875 L 343.894531 127.617188 L 344.144531 127.355469 L 344.394531 127.085938 L 344.644531 126.808594 L 344.894531 126.523438 L 345.144531 126.234375 L 345.398438 125.941406 L 345.898438 125.347656 L 346.148438 125.046875 L 346.898438 124.15625 L 347.152344 123.871094 L 347.402344 123.585938 L 347.652344 123.3125 L 347.902344 123.046875 L 348.152344 122.796875 L 348.402344 122.558594 L 348.652344 122.332031 L 348.902344 122.125 L 349.15625 121.929688 L 349.40625 121.753906 L 349.65625 121.597656 L 349.90625 121.460938 L 350.15625 121.34375 L 350.40625 121.246094 L 350.65625 121.171875 L 350.910156 121.117188 L 351.160156 121.082031 L 351.410156 121.070313 L 351.660156 121.078125 L 351.910156 121.113281 L 352.160156 121.164063 L 352.410156 121.238281 L 352.664063 121.332031 L 352.914063 121.449219 L 353.164063 121.582031 L 353.414063 121.734375 L 353.664063 121.90625 L 353.914063 122.097656 L 354.164063 122.308594 L 354.417969 122.535156 L 354.667969 122.773438 L 354.917969 123.027344 L 355.167969 123.296875 L 355.417969 123.578125 L 355.667969 123.875 L 355.917969 124.179688 L 356.171875 124.496094 L 356.421875 124.824219 L 356.671875 125.160156 L 356.921875 125.5 L 357.171875 125.851563 L 357.421875 126.210938 L 357.671875 126.574219 L 357.921875 126.945313 L 358.175781 127.320313 L 358.675781 128.078125 L 359.675781 129.609375 L 359.929688 129.988281 L 360.179688 130.363281 L 360.429688 130.730469 L 360.679688 131.09375 L 360.929688 131.453125 L 361.179688 131.804688 L 361.429688 132.148438 L 361.683594 132.484375 L 361.933594 132.816406 L 362.183594 133.144531 L 362.683594 133.792969 L 362.933594 134.113281 L 363.183594 134.4375 L 363.4375 134.765625 L 363.6875 135.097656 L 363.9375 135.4375 L 364.1875 135.785156 L 364.4375 136.144531 L 364.6875 136.519531 L 364.9375 136.90625 L 365.191406 137.308594 L 365.441406 137.726563 L 365.691406 138.15625 L 365.941406 138.601563 L 366.191406 139.0625 L 366.441406 139.539063 L 366.691406 140.027344 L 366.945313 140.527344 L 367.195313 141.039063 L 367.445313 141.558594 L 367.695313 142.085938 L 367.945313 142.617188 L 368.195313 143.152344 L 368.695313 144.230469 L 368.949219 144.773438 L 369.449219 145.84375 L 369.699219 146.375 L 369.949219 146.898438 L 370.199219 147.417969 L 370.449219 147.929688 L 370.703125 148.433594 L 370.953125 148.929688 L 371.203125 149.417969 L 371.453125 149.894531 L 371.703125 150.363281 L 371.953125 150.820313 L 372.203125 151.265625 L 372.457031 151.695313 L 372.707031 152.117188 L 372.957031 152.523438 L 373.207031 152.917969 L 373.457031 153.300781 L 373.707031 153.667969 L 373.957031 154.023438 L 374.210938 154.359375 L 374.460938 154.683594 L 374.710938 154.996094 L 374.960938 155.292969 L 375.210938 155.578125 L 375.460938 155.851563 L 375.710938 156.109375 L 375.964844 156.359375 L 376.214844 156.597656 L 376.464844 156.828125 L 376.714844 157.050781 L 376.964844 157.265625 L 377.214844 157.476563 L 377.464844 157.683594 L 377.71875 157.890625 L 377.96875 158.09375 L 378.46875 158.507813 L 378.71875 158.71875 L 379.21875 159.148438 L 379.46875 159.375 L 379.722656 159.605469 L 379.972656 159.839844 L 380.222656 160.082031 L 380.472656 160.332031 L 380.722656 160.585938 L 380.972656 160.84375 L 381.222656 161.105469 L 381.476563 161.375 L 381.726563 161.640625 L 382.226563 162.179688 L 382.726563 162.710938 L 382.976563 162.96875 L 383.230469 163.222656 L 383.480469 163.464844 L 383.730469 163.703125 L 383.980469 163.929688 L 384.230469 164.144531 L 384.480469 164.351563 L 384.730469 164.546875 L 384.984375 164.730469 L 385.234375 164.898438 L 385.484375 165.058594 L 385.734375 165.207031 L 385.984375 165.347656 L 386.234375 165.476563 L 386.484375 165.597656 L 386.738281 165.710938 L 386.988281 165.820313 L 387.238281 165.921875 L 387.738281 166.117188 L 388.238281 166.304688 L 388.492188 166.398438 L 389.242188 166.679688 L 389.992188 166.972656 L 390.242188 167.074219 L 390.496094 167.175781 L 390.746094 167.277344 L 390.996094 167.375 L 391.246094 167.476563 L 391.996094 167.769531 L 392.25 167.859375 L 392.75 168.039063 L 393.25 168.203125 L 393.5 168.28125 L 393.75 168.355469 L 394.003906 168.425781 L 394.253906 168.496094 L 394.503906 168.5625 L 395.003906 168.6875 L 395.503906 168.804688 L 395.757813 168.863281 L 396.507813 169.027344 L 397.257813 169.179688 L 397.511719 169.230469 L 398.011719 169.324219 L 398.511719 169.410156 L 399.261719 169.527344 L 399.515625 169.558594 L 399.765625 169.59375 L 400.015625 169.625 L 400.515625 169.679688 L 401.015625 169.726563 L 401.269531 169.75 L 402.019531 169.808594 L 402.519531 169.839844 L 402.769531 169.851563 L 403.023438 169.867188 L 404.023438 169.914063 L 404.523438 169.929688 L 404.777344 169.941406 L 405.027344 169.949219 L 405.277344 169.953125 L 405.777344 169.96875 L 406.277344 169.976563 L 406.53125 169.980469 L 407.03125 169.988281 L 407.28125 169.988281 L 407.53125 169.992188 L 408.03125 169.992188 L 408.285156 169.996094 L 409.035156 169.996094 L 409.285156 169.992188 L 410.539063 169.992188 L 410.789063 169.988281 L 411.289063 169.988281 L 411.539063 169.984375 L 412.292969 169.984375 L 412.542969 169.980469 L 413.292969 169.980469 L 413.542969 169.976563 L 414.796875 169.976563 L 415.046875 169.980469 L 415.550781 169.980469 L 415.800781 169.984375 L 416.050781 169.984375 L 417.050781 170 L 417.050781 170.105469 L 291.78125 170.105469 Z M 291.78125 169.765625 "/>
<path style=" stroke:none;fill-rule:nonzero;fill:rgb(25.882353%,33.72549%,39.215686%);fill-opacity:1;" d="M 194.335938 115.160156 L 194.890625 115.160156 L 195.164063 115.164063 L 195.441406 115.164063 L 195.71875 115.167969 L 195.992188 115.171875 L 196.824219 115.183594 L 197.097656 115.1875 L 197.652344 115.195313 L 197.925781 115.199219 L 198.480469 115.207031 L 198.757813 115.207031 L 199.03125 115.210938 L 199.308594 115.214844 L 199.585938 115.214844 L 199.859375 115.21875 L 200.136719 115.21875 L 200.414063 115.222656 L 202.625 115.222656 L 202.898438 115.21875 L 203.175781 115.21875 L 203.453125 115.214844 L 203.726563 115.214844 L 204.28125 115.207031 L 204.554688 115.203125 L 204.832031 115.195313 L 205.386719 115.1875 L 205.660156 115.179688 L 206.214844 115.164063 L 206.488281 115.160156 L 207.320313 115.136719 L 207.59375 115.128906 L 208.148438 115.113281 L 208.421875 115.105469 L 208.699219 115.097656 L 208.976563 115.09375 L 209.253906 115.085938 L 209.527344 115.082031 L 210.082031 115.074219 L 210.355469 115.070313 L 211.1875 115.058594 L 211.460938 115.058594 L 212.015625 115.050781 L 212.289063 115.046875 L 212.566406 115.046875 L 213.121094 115.039063 L 213.394531 115.035156 L 213.949219 115.027344 L 214.222656 115.023438 L 214.777344 115.015625 L 215.050781 115.011719 L 215.882813 115 L 216.15625 114.996094 L 216.433594 114.992188 L 216.710938 114.992188 L 216.984375 114.988281 L 217.261719 114.984375 L 217.539063 114.984375 L 217.816406 114.980469 L 218.089844 114.976563 L 218.367188 114.96875 L 218.644531 114.964844 L 218.917969 114.957031 L 219.195313 114.949219 L 219.472656 114.9375 L 219.75 114.929688 L 220.023438 114.914063 L 220.578125 114.882813 L 220.851563 114.863281 L 221.683594 114.792969 L 221.957031 114.765625 L 222.234375 114.738281 L 222.511719 114.707031 L 222.785156 114.675781 L 223.339844 114.613281 L 223.617188 114.578125 L 223.890625 114.546875 L 224.167969 114.507813 L 224.445313 114.472656 L 224.71875 114.4375 L 225.273438 114.359375 L 225.546875 114.316406 L 225.824219 114.277344 L 226.378906 114.183594 L 226.652344 114.136719 L 227.207031 114.027344 L 227.480469 113.96875 L 228.035156 113.84375 L 228.3125 113.773438 L 228.585938 113.699219 L 228.863281 113.625 L 229.140625 113.546875 L 229.414063 113.460938 L 229.96875 113.289063 L 230.246094 113.195313 L 230.519531 113.097656 L 230.796875 113 L 231.074219 112.898438 L 231.347656 112.792969 L 231.625 112.683594 L 231.902344 112.570313 L 232.179688 112.449219 L 232.453125 112.324219 L 232.730469 112.195313 L 233.007813 112.0625 L 233.28125 111.921875 L 233.558594 111.769531 L 233.835938 111.613281 L 234.113281 111.449219 L 234.386719 111.277344 L 234.664063 111.097656 L 234.941406 110.914063 L 235.214844 110.71875 L 235.492188 110.515625 L 235.769531 110.308594 L 236.042969 110.09375 L 236.320313 109.871094 L 236.875 109.417969 L 237.148438 109.183594 L 237.425781 108.945313 L 237.703125 108.703125 L 237.976563 108.460938 L 238.53125 107.960938 L 238.808594 107.707031 L 239.082031 107.449219 L 239.359375 107.1875 L 239.636719 106.921875 L 240.1875 106.371094 L 240.464844 106.089844 L 240.742188 105.800781 L 241.015625 105.507813 L 241.292969 105.207031 L 241.570313 104.902344 L 241.84375 104.59375 L 242.398438 103.960938 L 242.675781 103.640625 L 242.949219 103.320313 L 243.503906 102.6875 L 243.777344 102.375 L 244.054688 102.066406 L 244.332031 101.761719 L 244.605469 101.46875 L 244.882813 101.183594 L 245.160156 100.902344 L 245.4375 100.636719 L 245.710938 100.375 L 245.988281 100.121094 L 246.265625 99.878906 L 246.539063 99.640625 L 246.816406 99.40625 L 247.371094 98.953125 L 247.644531 98.722656 L 247.921875 98.496094 L 248.199219 98.261719 L 248.472656 98.019531 L 248.75 97.773438 L 249.027344 97.511719 L 249.304688 97.238281 L 249.578125 96.953125 L 249.855469 96.652344 L 250.132813 96.335938 L 250.40625 96 L 250.683594 95.652344 L 250.960938 95.285156 L 251.238281 94.902344 L 251.511719 94.5 L 251.652344 94.292969 L 251.652344 115.230469 L 194.335938 115.230469 Z M 194.335938 115.160156 "/>
<path style=" stroke:none;fill-rule:nonzero;fill:rgb(80%,80%,80%);fill-opacity:1;" d="M 251.652344 94.292969 L 251.789063 94.082031 L 252.066406 93.652344 L 252.339844 93.207031 L 252.617188 92.75 L 252.894531 92.277344 L 253.171875 91.796875 L 253.445313 91.304688 L 253.722656 90.800781 L 254 90.289063 L 254.273438 89.765625 L 254.550781 89.238281 L 254.828125 88.699219 L 255.101563 88.15625 L 255.378906 87.609375 L 255.65625 87.054688 L 255.933594 86.496094 L 256.207031 85.933594 L 256.484375 85.371094 L 256.761719 84.804688 L 257.035156 84.238281 L 257.589844 83.105469 L 257.867188 82.542969 L 258.140625 81.980469 L 258.96875 80.324219 L 259.246094 79.785156 L 259.523438 79.253906 L 259.800781 78.726563 L 260.074219 78.210938 L 260.351563 77.707031 L 260.628906 77.214844 L 260.902344 76.734375 L 261.179688 76.269531 L 261.457031 75.824219 L 261.734375 75.390625 L 262.007813 74.976563 L 262.285156 74.582031 L 262.5625 74.214844 L 262.835938 73.863281 L 263.113281 73.535156 L 263.390625 73.230469 L 263.667969 72.945313 L 263.941406 72.683594 L 264.21875 72.4375 L 264.496094 72.214844 L 264.769531 72.011719 L 265.046875 71.824219 L 265.324219 71.652344 L 265.597656 71.492188 L 265.875 71.34375 L 266.152344 71.207031 L 266.429688 71.074219 L 266.703125 70.949219 L 266.980469 70.828125 L 267.257813 70.710938 L 267.53125 70.59375 L 267.808594 70.480469 L 268.085938 70.371094 L 268.363281 70.257813 L 268.636719 70.148438 L 268.914063 70.039063 L 269.191406 69.933594 L 269.464844 69.828125 L 269.742188 69.722656 L 270.019531 69.621094 L 270.296875 69.523438 L 270.570313 69.425781 L 270.847656 69.332031 L 271.125 69.242188 L 271.398438 69.148438 L 271.675781 69.0625 L 272.230469 68.882813 L 272.503906 68.796875 L 272.78125 68.710938 L 273.058594 68.621094 L 273.332031 68.539063 L 273.609375 68.457031 L 273.886719 68.382813 L 274.164063 68.3125 L 274.4375 68.253906 L 274.714844 68.207031 L 274.992188 68.175781 L 275.265625 68.164063 L 275.542969 68.167969 L 275.820313 68.199219 L 276.09375 68.261719 L 276.371094 68.347656 L 276.648438 68.464844 L 276.925781 68.609375 L 277.199219 68.785156 L 277.476563 68.988281 L 277.753906 69.21875 L 278.027344 69.480469 L 278.304688 69.765625 L 278.582031 70.074219 L 278.859375 70.402344 L 279.132813 70.746094 L 279.410156 71.101563 L 279.6875 71.472656 L 279.960938 71.847656 L 280.238281 72.234375 L 280.792969 73.015625 L 281.066406 73.414063 L 281.34375 73.808594 L 281.621094 74.210938 L 281.894531 74.609375 L 282.171875 75.011719 L 282.449219 75.417969 L 282.726563 75.828125 L 283 76.242188 L 283.277344 76.664063 L 283.554688 77.089844 L 283.828125 77.523438 L 284.105469 77.964844 L 284.382813 78.417969 L 284.65625 78.878906 L 284.933594 79.351563 L 285.210938 79.835938 L 285.488281 80.328125 L 285.761719 80.832031 L 286.039063 81.34375 L 286.316406 81.863281 L 286.589844 82.390625 L 286.867188 82.925781 L 287.144531 83.464844 L 287.421875 84.011719 L 287.695313 84.558594 L 288.25 85.652344 L 288.523438 86.199219 L 289.078125 87.285156 L 289.355469 87.816406 L 289.628906 88.34375 L 289.90625 88.867188 L 290.183594 89.378906 L 290.457031 89.882813 L 290.734375 90.378906 L 291.011719 90.863281 L 291.289063 91.339844 L 291.5625 91.804688 L 291.839844 92.257813 L 292.117188 92.699219 L 292.390625 93.132813 L 292.667969 93.554688 L 292.945313 93.964844 L 293.222656 94.363281 L 293.496094 94.75 L 293.773438 95.128906 L 294.050781 95.496094 L 294.324219 95.851563 L 294.601563 96.199219 L 294.878906 96.539063 L 295.152344 96.867188 L 295.429688 97.195313 L 295.984375 97.828125 L 296.257813 98.140625 L 296.535156 98.453125 L 296.8125 98.761719 L 297.085938 99.074219 L 297.363281 99.386719 L 297.640625 99.703125 L 297.917969 100.023438 L 298.191406 100.347656 L 298.46875 100.675781 L 298.746094 101.007813 L 299.019531 101.34375 L 299.296875 101.683594 L 299.851563 102.371094 L 300.125 102.714844 L 300.402344 103.0625 L 300.679688 103.40625 L 300.953125 103.746094 L 301.507813 104.417969 L 301.785156 104.742188 L 302.058594 105.0625 L 302.335938 105.378906 L 302.613281 105.683594 L 302.886719 105.980469 L 303.164063 106.269531 L 303.441406 106.550781 L 303.71875 106.824219 L 303.992188 107.089844 L 304.269531 107.347656 L 304.546875 107.601563 L 304.820313 107.847656 L 305.097656 108.085938 L 305.375 108.320313 L 305.648438 108.550781 L 305.925781 108.777344 L 306.203125 108.996094 L 306.480469 109.210938 L 306.753906 109.421875 L 307.03125 109.628906 L 307.308594 109.828125 L 307.582031 110.023438 L 307.859375 110.214844 L 308.136719 110.402344 L 308.414063 110.582031 L 308.6875 110.753906 L 308.964844 110.921875 L 309.242188 111.082031 L 309.515625 111.234375 L 309.792969 111.378906 L 310.070313 111.519531 L 310.347656 111.648438 L 310.621094 111.777344 L 310.898438 111.894531 L 311.175781 112.007813 L 311.449219 112.113281 L 311.726563 112.214844 L 312.28125 112.402344 L 312.554688 112.488281 L 312.832031 112.570313 L 313.109375 112.648438 L 313.382813 112.722656 L 313.660156 112.796875 L 314.214844 112.9375 L 314.488281 113.003906 L 314.765625 113.074219 L 315.042969 113.140625 L 315.316406 113.207031 L 315.59375 113.273438 L 315.871094 113.335938 L 316.144531 113.402344 L 316.421875 113.464844 L 316.699219 113.53125 L 316.976563 113.59375 L 317.25 113.65625 L 317.527344 113.71875 L 317.804688 113.777344 L 318.078125 113.835938 L 318.632813 113.953125 L 318.910156 114.007813 L 319.183594 114.058594 L 319.738281 114.160156 L 320.011719 114.210938 L 320.566406 114.304688 L 320.84375 114.347656 L 321.117188 114.390625 L 321.671875 114.476563 L 321.945313 114.515625 L 322.5 114.59375 L 322.777344 114.628906 L 323.050781 114.664063 L 323.605469 114.726563 L 323.878906 114.753906 L 324.15625 114.78125 L 324.433594 114.804688 L 324.707031 114.828125 L 324.984375 114.847656 L 325.539063 114.878906 L 325.8125 114.890625 L 326.367188 114.914063 L 326.640625 114.921875 L 327.472656 114.945313 L 327.746094 114.953125 L 328.023438 114.957031 L 328.300781 114.964844 L 328.574219 114.972656 L 329.40625 114.996094 L 329.679688 115.003906 L 330.234375 115.019531 L 330.507813 115.03125 L 331.0625 115.046875 L 331.339844 115.058594 L 331.613281 115.066406 L 331.890625 115.078125 L 332.167969 115.085938 L 332.441406 115.097656 L 332.441406 115.230469 L 251.652344 115.230469 Z M 251.652344 94.292969 "/>
<path style=" stroke:none;fill-rule:nonzero;fill:rgb(80%,80%,80%);fill-opacity:1;" d="M 27.6875 60.285156 L 27.957031 60.285156 L 28.226563 60.28125 L 28.492188 60.28125 L 28.761719 60.285156 L 30.105469 60.285156 L 30.375 60.28125 L 30.644531 60.28125 L 30.910156 60.277344 L 31.449219 60.269531 L 31.71875 60.261719 L 31.984375 60.253906 L 32.253906 60.242188 L 32.523438 60.234375 L 32.792969 60.222656 L 33.058594 60.207031 L 34.136719 60.144531 L 34.402344 60.125 L 34.671875 60.105469 L 34.941406 60.089844 L 35.210938 60.070313 L 35.476563 60.054688 L 35.746094 60.035156 L 36.285156 60.003906 L 36.554688 59.992188 L 36.820313 59.976563 L 37.089844 59.964844 L 37.359375 59.957031 L 37.628906 59.945313 L 37.894531 59.9375 L 38.972656 59.90625 L 39.238281 59.894531 L 39.777344 59.871094 L 40.046875 59.855469 L 40.3125 59.835938 L 40.582031 59.816406 L 41.121094 59.761719 L 41.386719 59.730469 L 41.925781 59.652344 L 42.195313 59.609375 L 42.464844 59.558594 L 42.730469 59.507813 L 43.269531 59.398438 L 43.539063 59.339844 L 43.804688 59.277344 L 44.074219 59.21875 L 44.613281 59.09375 L 44.882813 59.035156 L 45.148438 58.976563 L 45.957031 58.800781 L 46.222656 58.746094 L 46.492188 58.691406 L 46.761719 58.640625 L 47.03125 58.585938 L 47.300781 58.535156 L 47.566406 58.480469 L 47.835938 58.421875 L 48.105469 58.367188 L 48.375 58.304688 L 48.640625 58.238281 L 48.910156 58.171875 L 49.179688 58.097656 L 49.449219 58.019531 L 49.71875 57.933594 L 49.984375 57.84375 L 50.253906 57.746094 L 50.523438 57.644531 L 50.792969 57.535156 L 51.058594 57.421875 L 51.328125 57.300781 L 51.597656 57.175781 L 51.867188 57.046875 L 52.132813 56.917969 L 52.671875 56.644531 L 53.210938 56.363281 L 53.476563 56.222656 L 53.746094 56.082031 L 54.015625 55.9375 L 54.285156 55.796875 L 54.550781 55.65625 L 54.820313 55.511719 L 55.089844 55.371094 L 55.359375 55.226563 L 55.628906 55.085938 L 55.894531 54.941406 L 56.164063 54.796875 L 56.703125 54.5 L 56.96875 54.351563 L 57.238281 54.199219 L 57.777344 53.886719 L 58.046875 53.726563 L 58.3125 53.566406 L 58.582031 53.40625 L 58.851563 53.242188 L 59.121094 53.074219 L 59.386719 52.90625 L 59.65625 52.734375 L 60.195313 52.382813 L 60.464844 52.203125 L 60.730469 52.015625 L 61 51.824219 L 61.269531 51.625 L 61.539063 51.414063 L 61.804688 51.199219 L 62.074219 50.96875 L 62.34375 50.730469 L 62.613281 50.480469 L 62.878906 50.210938 L 63.148438 49.925781 L 63.417969 49.628906 L 63.6875 49.3125 L 63.957031 48.984375 L 64.222656 48.636719 L 64.492188 48.273438 L 64.761719 47.894531 L 65.03125 47.5 L 65.296875 47.09375 L 65.566406 46.671875 L 65.835938 46.238281 L 66.105469 45.796875 L 66.375 45.34375 L 66.640625 44.878906 L 66.910156 44.410156 L 67.179688 43.929688 L 67.449219 43.441406 L 67.714844 42.945313 L 67.984375 42.445313 L 68.253906 41.941406 L 68.523438 41.425781 L 68.792969 40.90625 L 69.058594 40.382813 L 69.328125 39.851563 L 69.597656 39.316406 L 69.867188 38.777344 L 70.132813 38.234375 L 71.210938 36.046875 L 71.476563 35.5 L 71.746094 34.960938 L 72.015625 34.425781 L 72.285156 33.894531 L 72.550781 33.375 L 72.820313 32.863281 L 73.089844 32.363281 L 73.359375 31.875 L 73.625 31.402344 L 73.894531 30.941406 L 74.164063 30.492188 L 74.433594 30.054688 L 74.703125 29.636719 L 74.96875 29.226563 L 75.238281 28.835938 L 75.507813 28.457031 L 75.777344 28.089844 L 76.042969 27.734375 L 76.3125 27.390625 L 76.582031 27.054688 L 76.851563 26.730469 L 77.121094 26.417969 L 77.386719 26.109375 L 77.65625 25.808594 L 77.925781 25.511719 L 78.195313 25.21875 L 78.460938 24.925781 L 79 24.347656 L 79.539063 23.761719 L 79.804688 23.460938 L 80.074219 23.160156 L 80.34375 22.851563 L 80.613281 22.539063 L 80.878906 22.222656 L 81.148438 21.902344 L 81.6875 21.246094 L 81.953125 20.917969 L 82.492188 20.261719 L 82.761719 19.941406 L 83.03125 19.625 L 83.296875 19.320313 L 83.566406 19.027344 L 83.835938 18.746094 L 84.105469 18.480469 L 84.371094 18.230469 L 84.640625 18 L 84.910156 17.78125 L 85.179688 17.582031 L 85.449219 17.394531 L 85.714844 17.226563 L 85.984375 17.070313 L 86.253906 16.921875 L 86.523438 16.785156 L 86.789063 16.652344 L 87.058594 16.519531 L 87.597656 16.261719 L 87.867188 16.128906 L 88.132813 15.988281 L 88.402344 15.84375 L 88.671875 15.691406 L 88.941406 15.53125 L 89.207031 15.367188 L 89.476563 15.195313 L 90.015625 14.84375 L 90.285156 14.664063 L 90.550781 14.484375 L 90.820313 14.308594 L 91.089844 14.140625 L 91.359375 13.980469 L 91.625 13.832031 L 91.894531 13.695313 L 92.164063 13.578125 L 92.433594 13.476563 L 92.699219 13.390625 L 92.96875 13.328125 L 93.238281 13.285156 L 93.507813 13.261719 L 93.777344 13.261719 L 94.042969 13.285156 L 94.3125 13.332031 L 94.582031 13.398438 L 94.851563 13.484375 L 95.117188 13.59375 L 95.386719 13.71875 L 95.65625 13.863281 L 95.925781 14.027344 L 96.195313 14.210938 L 96.460938 14.40625 L 96.730469 14.621094 L 97 14.851563 L 97.269531 15.097656 L 97.535156 15.359375 L 97.804688 15.636719 L 98.074219 15.929688 L 98.34375 16.242188 L 98.613281 16.570313 L 98.878906 16.914063 L 99.148438 17.273438 L 99.417969 17.652344 L 99.550781 17.847656 L 99.550781 60.355469 L 27.6875 60.355469 Z M 27.6875 60.285156 "/>
<path style=" stroke:none;fill-rule:nonzero;fill:rgb(25.882353%,33.72549%,39.215686%);fill-opacity:1;" d="M 99.550781 17.847656 L 99.6875 18.046875 L 99.953125 18.457031 L 100.222656 18.882813 L 100.492188 19.324219 L 100.761719 19.78125 L 101.03125 20.25 L 101.296875 20.730469 L 101.566406 21.222656 L 101.835938 21.71875 L 102.105469 22.222656 L 102.371094 22.730469 L 103.179688 24.265625 L 103.445313 24.773438 L 103.714844 25.273438 L 103.984375 25.769531 L 104.253906 26.257813 L 104.523438 26.734375 L 104.789063 27.203125 L 105.058594 27.660156 L 105.328125 28.105469 L 105.597656 28.542969 L 105.863281 28.96875 L 106.132813 29.382813 L 106.402344 29.789063 L 106.671875 30.183594 L 106.941406 30.574219 L 107.207031 30.960938 L 108.015625 32.109375 L 108.28125 32.496094 L 108.550781 32.882813 L 108.820313 33.277344 L 109.089844 33.679688 L 109.359375 34.089844 L 109.625 34.503906 L 109.894531 34.929688 L 110.164063 35.359375 L 110.433594 35.800781 L 110.699219 36.242188 L 111.238281 37.140625 L 111.507813 37.59375 L 111.773438 38.039063 L 112.042969 38.484375 L 112.3125 38.921875 L 112.582031 39.347656 L 112.851563 39.765625 L 113.117188 40.167969 L 113.386719 40.558594 L 113.65625 40.933594 L 113.925781 41.292969 L 114.191406 41.636719 L 114.460938 41.964844 L 114.730469 42.273438 L 115 42.570313 L 115.269531 42.851563 L 115.535156 43.125 L 115.804688 43.386719 L 116.074219 43.640625 L 116.34375 43.890625 L 116.609375 44.136719 L 117.148438 44.628906 L 117.417969 44.878906 L 117.6875 45.136719 L 117.953125 45.398438 L 118.222656 45.667969 L 118.492188 45.941406 L 118.761719 46.226563 L 119.027344 46.523438 L 119.296875 46.828125 L 119.566406 47.136719 L 119.835938 47.453125 L 120.105469 47.777344 L 120.371094 48.105469 L 120.640625 48.433594 L 121.179688 49.097656 L 121.445313 49.425781 L 121.714844 49.753906 L 121.984375 50.074219 L 122.253906 50.390625 L 122.519531 50.703125 L 122.789063 51.003906 L 123.058594 51.300781 L 123.328125 51.582031 L 123.597656 51.859375 L 123.863281 52.125 L 124.132813 52.382813 L 124.402344 52.628906 L 124.671875 52.871094 L 124.9375 53.101563 L 125.207031 53.320313 L 125.476563 53.535156 L 125.746094 53.742188 L 126.015625 53.941406 L 126.28125 54.136719 L 126.550781 54.328125 L 126.820313 54.515625 L 127.089844 54.699219 L 127.355469 54.878906 L 127.894531 55.230469 L 128.433594 55.574219 L 128.699219 55.742188 L 129.507813 56.234375 L 129.773438 56.390625 L 130.042969 56.546875 L 130.3125 56.699219 L 130.851563 56.988281 L 131.117188 57.128906 L 131.386719 57.261719 L 131.925781 57.511719 L 132.191406 57.625 L 132.460938 57.738281 L 132.730469 57.84375 L 133 57.941406 L 133.265625 58.035156 L 133.535156 58.121094 L 134.074219 58.277344 L 134.34375 58.347656 L 134.609375 58.410156 L 134.878906 58.472656 L 135.148438 58.53125 L 135.417969 58.582031 L 135.683594 58.632813 L 136.222656 58.726563 L 136.761719 58.8125 L 137.027344 58.851563 L 137.296875 58.894531 L 137.835938 58.972656 L 138.101563 59.011719 L 138.371094 59.054688 L 138.640625 59.09375 L 139.179688 59.179688 L 139.445313 59.222656 L 140.253906 59.351563 L 140.519531 59.398438 L 140.789063 59.441406 L 141.058594 59.488281 L 141.597656 59.574219 L 141.863281 59.617188 L 142.671875 59.734375 L 142.9375 59.769531 L 143.207031 59.804688 L 143.746094 59.867188 L 144.011719 59.894531 L 144.550781 59.941406 L 145.089844 59.980469 L 145.355469 60 L 145.625 60.011719 L 145.894531 60.027344 L 146.164063 60.039063 L 146.429688 60.050781 L 146.96875 60.066406 L 147.238281 60.078125 L 147.507813 60.085938 L 147.773438 60.089844 L 148.582031 60.113281 L 148.847656 60.121094 L 149.117188 60.125 L 149.925781 60.148438 L 150.191406 60.15625 L 150.730469 60.171875 L 151 60.175781 L 151.265625 60.183594 L 152.074219 60.207031 L 152.339844 60.210938 L 152.609375 60.21875 L 152.878906 60.222656 L 153.148438 60.230469 L 153.417969 60.234375 L 153.683594 60.242188 L 154.492188 60.253906 L 154.757813 60.261719 L 155.027344 60.265625 L 155.296875 60.265625 L 155.835938 60.273438 L 156.101563 60.273438 L 156.371094 60.277344 L 157.175781 60.277344 L 157.445313 60.273438 L 157.714844 60.273438 L 158.253906 60.265625 L 158.519531 60.261719 L 158.789063 60.257813 L 159.058594 60.25 L 159.328125 60.246094 L 159.59375 60.242188 L 159.863281 60.234375 L 160.671875 60.222656 L 160.9375 60.21875 L 162.011719 60.21875 L 162.011719 60.355469 L 99.550781 60.355469 Z M 99.550781 17.847656 "/>
<path style="fill:none;stroke-width:1.280374;stroke-linecap:butt;stroke-linejoin:round;stroke:rgb(0%,0%,0%);stroke-opacity:1;stroke-miterlimit:10;" d="M 58.164063 60.355469 L 125.472656 60.355469 "/>
<path style="fill:none;stroke-width:1.280374;stroke-linecap:butt;stroke-linejoin:round;stroke:rgb(0%,0%,0%);stroke-opacity:1;stroke-miterlimit:10;" d="M 236.484375 224.980469 L 302.488281 224.980469 "/>
<path style="fill:none;stroke-width:1.280374;stroke-linecap:butt;stroke-linejoin:round;stroke:rgb(0%,0%,0%);stroke-opacity:1;stroke-miterlimit:10;" d="M 239.308594 115.230469 L 305.289063 115.230469 "/>
<path style="fill:none;stroke-width:1.280374;stroke-linecap:butt;stroke-linejoin:round;stroke:rgb(0%,0%,0%);stroke-opacity:1;stroke-miterlimit:10;" d="M 317.480469 170.105469 L 382.449219 170.105469 "/>
<path style="fill:none;stroke-width:1.280374;stroke-linecap:butt;stroke-linejoin:round;stroke:rgb(0%,0%,0%);stroke-opacity:1;stroke-miterlimit:10;" d="M 161.753906 279.855469 L 226.605469 279.855469 "/>
<path style="fill:none;stroke-width:2.987539;stroke-linecap:butt;stroke-linejoin:round;stroke:rgb(0%,0%,0%);stroke-opacity:1;stroke-miterlimit:10;" d="M 254.171875 224.980469 L 286.734375 224.980469 "/>
<path style="fill:none;stroke-width:2.987539;stroke-linecap:butt;stroke-linejoin:round;stroke:rgb(0%,0%,0%);stroke-opacity:1;stroke-miterlimit:10;" d="M 75.363281 60.355469 L 107.875 60.355469 "/>
<path style="fill:none;stroke-width:2.987539;stroke-linecap:butt;stroke-linejoin:round;stroke:rgb(0%,0%,0%);stroke-opacity:1;stroke-miterlimit:10;" d="M 178.082031 279.855469 L 209.675781 279.855469 "/>
<path style="fill:none;stroke-width:2.987539;stroke-linecap:butt;stroke-linejoin:round;stroke:rgb(0%,0%,0%);stroke-opacity:1;stroke-miterlimit:10;" d="M 256.40625 115.230469 L 287.855469 115.230469 "/>
<path style="fill:none;stroke-width:2.987539;stroke-linecap:butt;stroke-linejoin:round;stroke:rgb(0%,0%,0%);stroke-opacity:1;stroke-miterlimit:10;" d="M 334.636719 170.105469 L 365.835938 170.105469 "/>
<path style="fill-rule:nonzero;fill:rgb(0%,0%,0%);fill-opacity:1;stroke-width:1.062992;stroke-linecap:round;stroke-linejoin:round;stroke:rgb(0%,0%,0%);stroke-opacity:1;stroke-miterlimit:10;" d="M 93.34375 60.355469 C 93.34375 62.601563 89.976563 62.601563 89.976563 60.355469 C 89.976563 58.109375 93.34375 58.109375 93.34375 60.355469 "/>
<path style="fill-rule:nonzero;fill:rgb(0%,0%,0%);fill-opacity:1;stroke-width:1.062992;stroke-linecap:round;stroke-linejoin:round;stroke:rgb(0%,0%,0%);stroke-opacity:1;stroke-miterlimit:10;" d="M 272.234375 224.980469 C 272.234375 227.226563 268.867188 227.226563 268.867188 224.980469 C 268.867188 222.734375 272.234375 222.734375 272.234375 224.980469 "/>
<path style="fill-rule:nonzero;fill:rgb(0%,0%,0%);fill-opacity:1;stroke-width:1.062992;stroke-linecap:round;stroke-linejoin:round;stroke:rgb(0%,0%,0%);stroke-opacity:1;stroke-miterlimit:10;" d="M 273.945313 115.230469 C 273.945313 117.476563 270.578125 117.476563 270.578125 115.230469 C 270.578125 112.984375 273.945313 112.984375 273.945313 115.230469 "/>
<path style="fill-rule:nonzero;fill:rgb(0%,0%,0%);fill-opacity:1;stroke-width:1.062992;stroke-linecap:round;stroke-linejoin:round;stroke:rgb(0%,0%,0%);stroke-opacity:1;stroke-miterlimit:10;" d="M 352 170.105469 C 352 172.351563 348.632813 172.351563 348.632813 170.105469 C 348.632813 167.859375 352 167.859375 352 170.105469 "/>
<path style="fill-rule:nonzero;fill:rgb(0%,0%,0%);fill-opacity:1;stroke-width:1.062992;stroke-linecap:round;stroke-linejoin:round;stroke:rgb(0%,0%,0%);stroke-opacity:1;stroke-miterlimit:10;" d="M 195.390625 279.855469 C 195.390625 282.101563 192.023438 282.101563 192.023438 279.855469 C 192.023438 277.609375 195.390625 277.609375 195.390625 279.855469 "/>
<path style="fill-rule:nonzero;fill:rgb(0%,0%,0%);fill-opacity:1;stroke-width:1.062992;stroke-linecap:round;stroke-linejoin:round;stroke:rgb(0%,0%,0%);stroke-opacity:1;stroke-miterlimit:10;" d="M 273.769531 224.980469 C 273.769531 229.273438 267.328125 229.273438 267.328125 224.980469 C 267.328125 220.6875 273.769531 220.6875 273.769531 224.980469 "/>
<path style="fill-rule:nonzero;fill:rgb(0%,0%,0%);fill-opacity:1;stroke-width:1.062992;stroke-linecap:round;stroke-linejoin:round;stroke:rgb(0%,0%,0%);stroke-opacity:1;stroke-miterlimit:10;" d="M 94.882813 60.355469 C 94.882813 64.648438 88.441406 64.648438 88.441406 60.355469 C 88.441406 56.0625 94.882813 56.0625 94.882813 60.355469 "/>
<path style="fill-rule:nonzero;fill:rgb(0%,0%,0%);fill-opacity:1;stroke-width:1.062992;stroke-linecap:round;stroke-linejoin:round;stroke:rgb(0%,0%,0%);stroke-opacity:1;stroke-miterlimit:10;" d="M 196.925781 279.855469 C 196.925781 284.148438 190.484375 284.148438 190.484375 279.855469 C 190.484375 275.5625 196.925781 275.5625 196.925781 279.855469 "/>
<path style="fill-rule:nonzero;fill:rgb(0%,0%,0%);fill-opacity:1;stroke-width:1.062992;stroke-linecap:round;stroke-linejoin:round;stroke:rgb(0%,0%,0%);stroke-opacity:1;stroke-miterlimit:10;" d="M 275.480469 115.230469 C 275.480469 119.523438 269.042969 119.523438 269.042969 115.230469 C 269.042969 110.9375 275.480469 110.9375 275.480469 115.230469 "/>
<path style="fill-rule:nonzero;fill:rgb(0%,0%,0%);fill-opacity:1;stroke-width:1.062992;stroke-linecap:round;stroke-linejoin:round;stroke:rgb(0%,0%,0%);stroke-opacity:1;stroke-miterlimit:10;" d="M 353.535156 170.105469 C 353.535156 174.398438 347.097656 174.398438 347.097656 170.105469 C 347.097656 165.8125 353.535156 165.8125 353.535156 170.105469 "/>
<g clip-path="url(#clip1)" clip-rule="nonzero">
<path style="fill:none;stroke-width:2.133957;stroke-linecap:butt;stroke-linejoin:round;stroke:rgb(25.882353%,33.72549%,39.215686%);stroke-opacity:1;stroke-dasharray:8.535827,8.535827;stroke-miterlimit:10;" d="M 99.652344 312.78125 L 99.652344 5.480469 "/>
</g>
<g clip-path="url(#clip2)" clip-rule="nonzero">
<path style="fill:none;stroke-width:2.133957;stroke-linecap:butt;stroke-linejoin:round;stroke:rgb(25.882353%,33.72549%,39.215686%);stroke-opacity:1;stroke-dasharray:8.535827,8.535827;stroke-miterlimit:10;" d="M 251.6875 312.78125 L 251.6875 5.480469 "/>
</g>
<path style="fill:none;stroke-width:3.200935;stroke-linecap:butt;stroke-linejoin:round;stroke:rgb(25.882353%,33.72549%,39.215686%);stroke-opacity:1;stroke-miterlimit:10;" d="M 8.21875 312.78125 L 8.21875 5.480469 "/>
<path style="fill:none;stroke-width:3.200935;stroke-linecap:butt;stroke-linejoin:round;stroke:rgb(25.882353%,33.72549%,39.215686%);stroke-opacity:1;stroke-miterlimit:10;" d="M 8.21875 312.78125 L 436.519531 312.78125 "/>
</g>
</svg>
